<?xml version="1.0" encoding="utf-8"?>
<!-- Generator: Adobe Illustrator 18.1.1, SVG Export Plug-In . SVG Version: 6.00 Build 0)  -->
<!DOCTYPE svg PUBLIC "-//W3C//DTD SVG 1.1//EN" "http://www.w3.org/Graphics/SVG/1.1/DTD/svg11.dtd">
<svg version="1.1" id="Layer_1" xmlns:sketch="http://www.bohemiancoding.com/sketch/ns"
	 xmlns="http://www.w3.org/2000/svg" xmlns:xlink="http://www.w3.org/1999/xlink" x="0px" y="0px" viewBox="-983 735 32 32"
	 enable-background="new -983 735 32 32" xml:space="preserve">
<g>
	<path fill="#85703C" d="M-974,758v-7c0-1.7,1.3-3,3-3h9v-2h-5c-1.1,0-2-0.9-2-2v-6h-10c-1.1,0-2,0.9-2,2v23c0,1.1,0.9,2,2,2h15
		c1.1,0,2-0.9,2-2v-2h-9C-972.7,761-974,759.7-974,758z"/>
	<path fill="#85703C" d="M-967,745h5l-6-7v6C-968,744.6-967.5,745-967,745z"/>
	<path fill="#85703C" d="M-968,752h-2v2h2c0.6,0,1-0.4,1-1C-967,752.4-967.4,752-968,752z"/>
	<path fill="#85703C" d="M-954,749h-17c-1.1,0-2,0.9-2,2v7c0,1.1,0.9,2,2,2h17c1.1,0,2-0.9,2-2v-7C-952,749.9-952.9,749-954,749z
		 M-968,755h-2v3h-1v-5v-2h3c1.1,0,2,0.9,2,2C-966,754.1-966.9,755-968,755z M-960,756c0,1.1-0.9,2-2,2h-3v-7h3c1.1,0,2,0.9,2,2V756
		z M-954,752h-4v2h3v1h-3v3h-1v-7h5V752z"/>
	<path fill="#85703C" d="M-962,752h-2v5h2c0.6,0,1-0.4,1-1v-3C-961,752.4-961.4,752-962,752z"/>
</g>
</svg>
