<?xml version="1.0" encoding="utf-8"?>
<!-- Generator: Adobe Illustrator 18.0.0, SVG Export Plug-In . SVG Version: 6.00 Build 0)  -->
<!DOCTYPE svg PUBLIC "-//W3C//DTD SVG 1.1//EN" "http://www.w3.org/Graphics/SVG/1.1/DTD/svg11.dtd">
<svg version="1.1" id="Layer_1" xmlns="http://www.w3.org/2000/svg" xmlns:xlink="http://www.w3.org/1999/xlink" x="0px" y="0px"
	 viewBox="0 0 200 125" enable-background="new 0 0 200 125" xml:space="preserve">
<rect x="-0.15" fill="#86703B" width="200.33" height="125"/>
<path fill="#FFFFFF" d="M131.154,62.273c0,0-4.064,0.302-4.836-0.97c-0.773-1.273-2.743-5.429-3.053-5.946
	c-0.309-0.516-2.46-1.204-2.856-0.223c-0.397,0.98-1.842,4.767-2.066,5.523c-0.222,0.757,0.113,0.905,1.214,1.059
	c0.361,0.068,0.217,0.551,0.217,0.551l-6.309,0.024c0,0-0.024-0.54,0.389-0.576c0.411-0.036,1.531,0.061,2.028-1.026
	c0.344-0.74,3.914-10.976,4.088-11.44c0.174-0.463,0.053-0.757-0.188-0.861c-0.361-0.155-0.656-0.213-1.154-0.351
	s-0.247-0.706-0.247-0.706s7.345,0.085,8.067,0.085c0.723,0,4.057,0.347,3.949,3.115c-0.121,3.665-4.886,4.05-5.109,4.035
	c-0.222-0.016-0.474,0.206,0.026,0.568c1.482,1.101,2.047,2.961,2.891,4.801c0.842,1.841,2.32,1.781,2.631,1.832
	C131.247,61.836,131.154,62.273,131.154,62.273L131.154,62.273z M127.589,50.849c0.241-1.223-0.576-2.77-1.779-2.77
	c-1.205,0-1.222-0.079-2.08-0.079c-0.861,0-1.077,0.707-1.077,0.707s-1.352,3.777-1.49,4.19c-0.135,0.411-0.222,0.876,0.741,0.876
	C126.24,53.775,127.297,52.363,127.589,50.849L127.589,50.849z M82.805,55.031c-0.622,4.645-4.848,7.664-8.98,7.664
	c-3.82,0-7.744-2.001-6.505-8.258c0.982-4.966,6.011-6.96,9.575-6.822C79.24,47.708,83.626,48.912,82.805,55.031L82.805,55.031z
	 M76.972,48.451c-4.619-0.382-6.839,4.942-7.303,7.691c-0.716,4.229,1.358,5.419,4.258,5.728c3.303,0.291,5.336-3.658,5.937-6.374
	C80.225,53.809,80.913,48.775,76.972,48.451L76.972,48.451z M94.264,21.558c-0.67,0.077-0.749,0.542-0.903,0.98
	c-0.155,0.44-6.22,17.626-6.374,18.221c-0.155,0.593-0.233,1.186,0.103,1.316c0.336,0.128,0.98,0.18,1.316,0.232
	c0.336,0.051,0.128,0.516,0.128,0.516l-7.124-0.025c0,0,0.051-0.619,0.438-0.67c0.387-0.051,1.032-0.104,1.471-0.155
	c0.438-0.053,0.852-0.518,0.982-0.879c0.128-0.362,6.478-18.091,6.659-18.685c0.18-0.593,0.18-0.98-0.492-1.135
	c-0.67-0.155-4.568-1.033-8.336-1.137c-2.197,0.041-5.847,0.974-5.523,4.413c0.077,0.568,0.411,2.502,2.22,2.709
	c2.09,0.233,3.174-0.463,2.993-3.251c0.62,0.051,1.578,2.726-1.239,3.923c-2.89,1.111-4.516-1.109-4.748-3.251
	c-0.233-2.143,1.573-5.366,6.452-5.471c5.24-0.155,7.098,0.903,11.046,1.135c7.2,0.802,13.11-2.683,13.11-2.683
	C106.446,17.663,103.503,21.766,94.264,21.558L94.264,21.558z M114.421,28.406c-0.344,0.087-1.367,0.061-1.696,0.595
	c-0.397,0.707-3.914,11.391-4.139,12.043c-0.222,0.653,0.355,0.955,0.852,1.057c0.5,0.104,0.174,0.646,0.174,0.646l-5.706,0.026
	c0,0-0.145-0.62,0.423-0.62c1.154,0,1.524-0.85,1.524-0.85s1.798-4.937,2.038-5.73c0.241-0.672-0.474-0.774-1.057-0.774
	c-0.585,0-5.653,0.079-5.936,0.079c-0.285,0-0.62,0.257-0.801,0.747c-0.182,0.492-1.626,4.722-1.756,5.162
	c-0.128,0.437-0.413,1.109,0.696,1.263c0.672,0.155,0.413,0.749,0.413,0.749h-5.961c0,0-0.259-0.464,0.155-0.568
	c0.414-0.102,0.336-0.051,0.723-0.102c0.929-0.13,1.239-1.033,1.497-1.783c0.259-0.747,3.614-10.219,3.872-11.019
	c0.259-0.799-0.842-0.714-1.135-0.749c-0.295,0-0.405-0.566,0.026-0.566s5.961,0,5.961,0c0.034,0.378,0.128,0.593-1.471,0.593
	c-0.5,0-0.672,0.498-0.826,0.825c-0.155,0.328-1.204,3.245-1.393,3.795c-0.191,0.549,0,0.895,0.36,0.895
	c0.361,0,4.613,0.008,5.678,0.008c1.249,0,1.461-0.361,1.635-0.808c0.172-0.447,1.401-3.752,1.539-4.233s-0.576-0.574-0.903-0.61
	c-0.498-0.053-0.457-0.491-0.026-0.491s5.419,0,5.419,0C114.601,27.985,114.763,28.321,114.421,28.406L114.421,28.406z
	 M129.544,28.474c-0.155,0.395-0.903,2.322-0.903,2.322s-0.232,0.251-0.336,0.027c-0.101-0.225,0.104-1.18,0.104-1.473
	c0-0.291-0.128-0.842-0.697-0.842c-0.568,0-4.362-0.01-4.722-0.01c-0.361,0-0.706,0.138-0.878,0.672
	c-0.174,0.534-1.222,3.501-1.393,4.052c-0.172,0.551-0.01,0.747,0.334,0.747c0.346,0,2.832,0.053,3.382,0.053
	c0.343,0,0.752-0.275,0.945-0.414c0.099-0.143,0.419-0.539,0.561-0.68c0.208-0.206,1.03-0.592,0.636,0.061
	c-0.757,1.084-1.214,2.658-1.265,3.193c-0.051,0.534-0.431,0.678-0.568,0.627c-0.138-0.051,0.008-0.568,0.06-0.982
	c0.051-0.411,0.06-1.032-0.524-1.032c-0.585,0-3.14,0-3.484,0s-0.673,0.172-0.861,0.569c-0.188,0.397-1.712,4.964-1.953,5.651
	c-0.239,0.688-0.213,1.083,0.285,1.083c0.498,0,4.507-0.024,5.678-0.024c1.171,0,3.097-2.376,3.097-2.376s0.242,0.223,0.05,0.568
	c-0.189,0.346-1.089,2.555-1.418,2.555c-0.328,0-12.559-0.016-12.559-0.016s0-0.353,0.361-0.474c0.36-0.121,1.384-0.199,1.641-0.903
	c0.259-0.706,3.864-11.002,4.103-11.691c0.241-0.688,0.293-1.086-0.793-1.273c-0.463-0.103-0.266-0.61-0.266-0.61s10.59,0,10.762,0
	C129.405,27.856,129.699,28.081,129.544,28.474L129.544,28.474z M70.908,40.889c-1.103,0.172-1.874,0.223-2.322,1.445
	c-0.448,1.223-6.238,17.386-6.582,18.35c-0.395,1.118,1.016,1.161,1.342,1.263c0.326,0.104,0.259,0.611,0.259,0.611H57.1
	c0,0-0.077-0.506,0.387-0.558c0.464-0.053,1.48,0.179,2.22-1.781c0.481-1.36,2.915-8.25,3.053-8.612
	c0.136-0.363,0.138-0.989-0.654-0.989c-0.791,0-8.885,0.06-9.885,0.077c-0.998,0.016-1.324,0.266-1.548,0.902
	c-0.225,0.638-3.191,9.309-3.329,9.756c-0.198,0.641,1.17,0.682,1.34,0.723c0.295,0.07,0.267,0.498,0.267,0.498l-6.195-0.036
	c0,0,0-0.376,0.276-0.428c0.276-0.053,0.644-0.036,1.057-0.14c0.413-0.103,0.774-0.524,1.033-1.263
	c0.257-0.741,6.21-17.86,6.418-18.461c0.206-0.603,0.162-1.275-0.767-1.463c-1.819-0.336-3.587-2.934-8.697-2.917
	c-6.212,0.179-6.488,5.299-6.488,5.84c0,1.084,1.507,2.986,3.314,2.986c3.69-0.053,3.303-3.2,3.716-2.427
	c0.233,0.361-0.128,3.278-3.82,3.097c-2.451-0.206-3.948-1.601-4.078-3.665c-0.128-3.923,3.484-5.987,6.788-6.297
	c5.704-0.336,7.02,2.504,10.169,3.097c1.367,0.259,4.509,0.293,4.509,0.293s0.155,0.196-0.293,0.368
	c-0.447,0.174-1.591,0.241-1.953,1.275c-0.361,1.033-2.263,6.495-2.366,6.788c-0.103,0.293,0.155,0.731,0.721,0.749
	c0.569,0.017,10.015-0.026,10.376-0.026c0.36,0,0.808-0.353,0.98-0.852c0.172-0.5,2.117-6.046,2.374-6.788
	c0.259-0.741-0.068-1.178-0.326-1.229c-0.257-0.051-0.585-0.07-0.913-0.087s-0.328-0.559-0.328-0.559l6.659,0.017
	C71.121,40.45,71.218,40.82,70.908,40.889L70.908,40.889z M99.967,49.38c-0.206,0.593-1.032,2.607-1.238,3.096
	c-0.208,0.491-0.595,0.259-0.62,0.026c0.051-2.141-0.98-4.232-4.309-4.309c-3.331-0.077-6.246,5.032-6.195,9.548
	c0.036,3.072,1.478,4.437,3.459,4.437c3.014,0,3.087-2.441,4.206-5.624c0.429-1.22-0.857-0.989-1.522-1.111
	c-0.378-0.07-0.223-0.516-0.223-0.516l6.142,0.016c0,0,0.026,0.534-0.387,0.551c-0.413,0.017-1.186,0.213-1.376,0.955
	c-0.189,0.741-0.731,2.066-1.006,2.789c-0.276,0.721-0.498,1.565-1.084,2.115c-1.224,1.151-5.153,1.488-5.515,1.488
	c-0.361,0-5.815-0.223-5.351-6.52c0.832-8.048,7.151-9.21,9.163-9.084c1.65,0.103,3.355,1.083,3.793,1.393
	c0.903,0.697,1.265,0.542,1.548,0.387C99.736,48.862,100.174,48.787,99.967,49.38L99.967,49.38z M166.192,47.779
	c0,0-1.601,0.026-1.858,0.749c-0.259,0.721-3.939,11.138-4.18,11.897c-0.242,0.759,0.524,0.929,1.006,0.98
	c0.481,0.051,0.352,0.636,0.352,0.636l-6.013,0.042c0,0-0.103-0.498,0.293-0.583c0.395-0.089,1.454-0.087,1.73-0.791
	c0.273-0.706,1.892-5.249,2.064-5.73c0.172-0.481,0.121-0.801-0.31-0.801c-0.568,0-6.333-0.026-6.9-0.026
	c-0.568,0-0.801,0.208-1.023,0.723c-0.223,0.516-1.85,5.256-1.935,5.6s-0.07,0.791,0.411,0.878c0.276,0.051,0.378,0.051,0.931,0.155
	c0.551,0.104,0.291,0.609,0.291,0.609h-6.744c0,0-0.138-0.436,0.361-0.556c0.5-0.122,1.874-0.217,2.117-0.852
	c0.241-0.636,3.933-11.389,4.207-12.079c0.273-0.689-0.654-0.654-1.12-0.757c-0.463-0.103-0.283-0.619-0.283-0.619l6.117-0.034
	c0,0,0.119,0.351-0.225,0.455c-0.344,0.103-1.686,0.275-1.909,0.878c-0.225,0.601-1.118,3.115-1.239,3.508
	c-0.122,0.395-0.405,1.265,0.077,1.265c0.482,0,6.52,0.026,7.072,0.026c0.551,0,0.852-0.338,1.026-0.886
	c0.17-0.551,0.929-2.813,1.168-3.502c0.241-0.687,0.3-1.05-0.644-1.238c-0.433-0.085-0.259-0.464-0.259-0.464l5.634-0.042
	L166.192,47.779L166.192,47.779z M76.121,67.711c-0.553,0.119-1.567,0.111-1.86,0.937c-0.291,0.826-6.072,17.403-6.331,18.16
	c-0.344,1.032,0.783,0.955,1.195,1.024c0.413,0.07,0.293,0.689,0.293,0.689l-6.754-0.002c0,0,0.036-0.568,0.5-0.636
	c0.464-0.068,1.623-0.164,1.899-0.903c0.172-0.532,3.235-9.471,3.338-9.729c0.104-0.259,0.138-0.577-0.516-0.593
	c-0.653-0.016-8.738,0.016-9.135,0c-0.397-0.016-1.084,0.085-1.291,0.721c-0.208,0.638-2.779,8.172-3.038,8.93
	c-0.257,0.759-0.188,1.453,1.154,1.522c0.464,0.051,0.387,0.672,0.387,0.672l-7.03-0.026c0,0-0.101-0.558,0.397-0.646
	c0.498-0.087,1.601,0.104,2.168-1.239c0.343-0.946,6.082-17.082,6.256-17.512c0.172-0.431,0.489-1.248-0.527-1.3
	c-2.287-0.172-5.126-0.747-6.71-0.801c-1.493-0.048-3.329,0.612-3.329,2.427c0,2.038,2.296,1.342,2.296,1.342
	s0.182,0.67-1.401,0.688c-1.135-0.036-1.565-1.362-1.565-2.306c0-0.945,1.868-2.879,3.948-2.743c1.255,0.07,5.963,0.696,5.963,0.696
	h6.762c0,0,0.016,0.551-0.413,0.569c-0.825,0.034-1.771,0.188-2.22,1.342c-0.448,1.152-1.988,5.402-2.143,5.833
	c-0.155,0.429,0.103,1.006,0.62,1.006c0.515,0,9.007,0,9.367,0c0.361,0,0.733-0.326,0.903-0.774c0.172-0.448,2.047-5.866,2.22-6.347
	c0.174-0.484,0.198-0.905-1.057-1.008c-0.447-0.087-0.447-0.629-0.447-0.629l6.564,0.017C76.586,67.092,76.673,67.591,76.121,67.711
	L76.121,67.711z M91.27,67.936c-0.275,0.481-0.609,1.901-0.817,2.124c-0.206,0.225-0.644,0.267-0.629-0.13
	c0.016-0.397,0.206-0.868,0.206-1.265c0-0.397-0.146-1.04-0.799-1.04c-0.654,0-4.346-0.026-4.724-0.026
	c-0.378,0-0.668,0.326-0.791,0.67c-0.121,0.344-1.367,3.897-1.506,4.328c-0.138,0.431-0.128,0.9,0.438,0.937
	c0.568,0.036,1.953,0.016,2.71,0c0.757-0.016,1.291-0.791,1.497-1.083c0.208-0.295,0.859-0.438,0.466,0.179
	c-0.395,0.62-1.008,2.272-1.162,2.84c-0.155,0.569-0.508,0.017-0.438-0.188c0.07-0.208,0.213-0.974-0.438-0.974
	c-0.654,0-2.296,0-2.968,0c-0.67,0-0.801,0.259-0.903,0.62c-0.103,0.361-1.771,4.637-1.977,5.394
	c-0.206,0.757,0.16,1.006,0.558,1.006c0.397,0,3.699,0,5.214,0c1.514,0,2.099-1.377,2.374-1.652
	c0.275-0.273,0.723-0.387,0.619-0.095c-0.103,0.293-0.431,1.067-0.636,1.635c-0.242,0.723-0.662,0.861-1.04,0.861
	c-0.38,0-12.181-0.01-12.181-0.01s-0.113-0.491,0.491-0.662c0.601-0.174,1.512-0.155,1.807-0.929
	c0.241-0.619,4.188-11.329,4.412-11.948c0.293-0.774-0.37-0.859-0.955-0.929c-0.583-0.07-0.481-0.656-0.481-0.656
	s10.893,0.01,11.268,0.01C91.26,66.954,91.545,67.455,91.27,67.936L91.27,67.936z M119.092,79.006
	c-0.136,0.36-0.807,2.099-0.963,2.478c-0.155,0.376-0.741,0.385-0.741,0.385h-12.466c0,0-0.043-0.5,0.37-0.534
	c0.414-0.034,1.618-0.247,1.927-1.091c0.31-0.844,3.924-10.84,4.233-11.716c0.361-1.016-0.653-1.04-1.032-1.109
	c-0.38-0.07-0.336-0.542-0.336-0.542l6.573-0.019c0,0-0.002,0.585-0.431,0.585c-1.393,0.017-1.885,0.387-2.143,1.008
	c-0.259,0.723-3.854,10.606-4.13,11.379c-0.275,0.776-0.128,1.403,0.492,1.42c0.619,0.016,2.383,0.017,4.722,0
	c2.34-0.019,3.293-2.245,3.433-2.504C118.739,78.491,119.262,78.542,119.092,79.006L119.092,79.006z M130.757,67.238
	c-0.929,0.07-1.186,0.609-1.342,0.955c-0.155,0.346-4.044,11.578-4.232,12.077c-0.189,0.5,0.128,0.82,1.263,0.956
	c0.413,0.07,0.344,0.627,0.344,0.627l-6.718-0.007c0,0,0.051-0.559,0.38-0.629c2.177-0.366,1.901-0.346,2.4-1.316
	c0.361-0.706,3.931-11.031,4.139-11.631c0.206-0.601-0.043-0.869-0.905-0.955c-3.839-0.361-5.266,0.736-5.366,2.194
	c-0.008,2.301,2.218,1.36,2.218,1.807c0,0.344-3.11,0.653-3.174-1.703c-0.053-1.991,2.521-2.999,3.51-3.019
	c0.793-0.017,8.009,0,8.44,0c0.431,0,1.084-0.079,1.445-0.182C133.297,66.669,132.15,67.153,130.757,67.238L130.757,67.238z
	 M153.4,67.272c-0.413,0.051-1.386,0.122-1.66,0.344c-0.276,0.227-4.352,11.881-4.49,12.276c-0.046,0.133-0.376,0.907,0.017,1.024
	c0.344,0.103,0.653,0.174,0.963,0.257c0.31,0.087,0.251,0.612,0.251,0.612l-6.146,0.042c0,0-0.065-0.593,0.363-0.643
	c1.358-0.122,1.437-0.189,1.66-0.759c0.225-0.568,1.834-5.083,2.039-5.651c0.206-0.569,0.036-0.774-0.672-0.774
	c-0.706,0-6.234-0.017-6.684,0c-0.448,0.017-0.524,0.283-0.644,0.595c-0.121,0.309-1.911,5.324-2.066,5.754s0.424,0.712,0.905,0.801
	c0.481,0.085,0.405,0.697,0.405,0.697h-6.188c0,0,0.036-0.569,0.414-0.62c1.546-0.053,1.72-0.498,1.858-0.826
	c0.136-0.328,4.129-11.587,4.284-12.105c0.208-0.688-0.317-0.81-1.161-0.929c-0.518-0.085-0.395-0.601-0.395-0.601h6.425
	c0,0,0.077,0.404-0.249,0.489c-1.22,0.188-1.754,0.346-2.012,0.965s-1.103,3.072-1.342,3.795c-0.241,0.721-0.128,1.159,0.491,1.176
	c0.62,0.017,6.178-0.032,6.762-0.016c0.554,0.014,0.886-0.825,0.956-0.98c0.189-0.431,1.141-3.34,1.314-3.87
	c0.213-0.658-0.155-0.943-0.413-0.982c-0.343-0.051-0.395-0.085-0.583-0.188c-0.31-0.155-0.261-0.457-0.261-0.457h6.196
	C153.736,66.696,153.813,67.221,153.4,67.272L153.4,67.272z M103.012,100.916c-0.121,0.378-0.37,0.516-0.644,0.516
	c-0.275,0-12.904,0.027-12.904,0.027s-0.026-0.387,0.31-0.44c1.445-0.051,2.038-0.232,2.374-1.161S96.2,88.71,96.328,88.27
	c0.13-0.438,0.361-0.903-0.929-1.032c-0.385-0.077-0.334-0.516-0.334-0.516l6.133-0.016c0,0,0.016,0.464-0.276,0.481
	c-1.307-0.002-1.822,0.603-2.064,1.342c-0.242,0.741-3.767,10.787-3.949,11.329c-0.066,0.198-0.32,1.032,0.285,1.032
	c0.697,0,3.225,0,5.058,0c1.832,0,3.648-3.647,3.733-3.767c0.085-0.121,0.343-0.138,0.275,0.085
	C104.192,97.432,103.135,100.54,103.012,100.916L103.012,100.916z M119.125,87.154c-0.38-0.087-0.429-0.457-0.429-0.457h5.428
	c0,0,0.012,0.423-0.336,0.438c-0.344,0.016-1.858,0.085-2.097,0.774c-0.241,0.688-3.038,8.412-3.864,9.935
	c-1.309,2.417-2.473,4.079-6.089,4.079c-0.716,0-7.276,0.095-5.008-5.989c0.466-1.367,2.21-6.08,2.589-7.13
	c0.38-1.052,0.559-1.561-0.937-1.679c-0.447-0.034-0.376-0.455-0.376-0.455l6.276,0.026c0,0-0.022,0.508-0.455,0.525
	c-0.67,0.017-1.178-0.13-1.781,1.384c-0.601,1.514-2.502,6.89-2.967,8.206c-0.685,1.935,1.166,3.975,2.658,3.975
	c1.727,0,4.156-0.251,5.238-3.149c0.723-1.935,3.02-8.206,3.408-9.239C120.872,87.145,119.505,87.241,119.125,87.154L119.125,87.154
	z M154.94,38.436c-0.014,0.121,0.188,2.862-2.806,6.217c-3.389,3.698-9.168,3.36-9.168,3.36s-4.226,11.614-4.466,12.284
	c-0.239,0.67-0.3,0.97,0.956,1.265c0.411,0.087,0.239,0.583,0.239,0.583l-6.22-0.034c0,0-0.016-0.421,0.346-0.474
	c0.361-0.051,0.601-0.095,1.014-0.18c0.516-0.119,0.878-0.653,1.084-1.238c0.206-0.586,4.232-12.311,4.232-12.311
	s-1.824-0.213-3.82-0.18c-1.994,0.034-2.545,1.393-2.562,1.909c-0.016,0.516,0.326,1.386,1.272,1.471
	c2.134,0.135,1.843-0.825,2.376-0.619c0.275,0.119-1.067,1.265-2.426,1.212c-2.201-0.239-2.213-1.289-2.213-1.72
	c0-1.788,1.205-2.417,2.445-2.847c1.239-0.431,5.944,0.155,6.478,0.155c0.133,0,4.487,0.658,8.128-1.314
	c2.3-1.246,4.375-3.737,4.725-7.487c0.189-2.115,0.085-11.096-9.782-11.096c-3.986,0-6.667,1.387-7.876,3.179
	c-2.122,3.147-0.241,7.506,3.205,7.506c0.309,0,0.601-0.008,0.569-0.387c0.09-5.008,3.827-4.219,4.284-3.433
	c1.599,2.718-2.291,4.552-2.53,4.619c-0.241,0.07-0.343,0.346-0.103,0.62c3.343,3.814,6.534,1.585,8.31,0.568
	c-0.223,0.997-2.366,2.253-4.534,2.253c-2.374,0-4.093-1.678-5.093-3.078c-1.006-0.043-5.857-0.453-5.857-5.276
	c0-3.839,3.136-7.191,9.549-7.035C154.428,27.397,155.472,35.646,154.94,38.436L154.94,38.436z M141.493,37.405
	c0.104,0.328,0.017,0.783,0.929,0.593c2.073-0.491,3.327-2.835,1.832-3.87C142.995,33.244,141.05,35.577,141.493,37.405
	L141.493,37.405z M110.23,60.51c-0.172,0.549-0.084,1.009,0.448,1.127c0.31,0.053,0.605,0.079,0.826,0.13
	c0.223,0.051,0.249,0.474,0.249,0.474l-6.52-0.017c0,0-0.06-0.302,0.336-0.405s1.765-0.017,2.038-0.929
	c0.275-0.913,1.137-3.882,1.241-4.174c0.101-0.291-0.079-0.515-0.731-0.515c-0.654,0-2.16,0.034-2.453,0.051
	c-0.291,0.017-0.784,0.206-1.437,0.893c-2.719,2.869-6.159,7.303-10.582,7.485c0.165-0.474,1.585-0.707,2.685-1.241
	c1.377-0.62,5.092-4.42,8.684-7.985c3.186-3.16,6.355-6.151,6.51-6.353c0.206-0.208,0.438-0.826-0.146-0.601
	c-0.585,0.223-1.756,0.291-3.406,0.309c-1.652,0.017-2.801-0.36-4.088-0.179c-1.096,0.155-1.953,0.89-1.953,1.702
	c0.021,1.543,2.078,1.487,2.968,0.67c0.016,0,0.058,0.295-0.063,0.413c-1.032,0.859-3.319,0.678-3.319-1.006
	c0-1.686,1.643-2.083,2.504-2.219c0.859-0.138,4.396,0.206,6.012-0.034c1.616-0.241,4.465-1.567,4.465-1.567
	C114.498,46.54,110.402,59.961,110.23,60.51L110.23,60.51z M109.834,51.677c-0.295,0.31-3.128,3.08-3.268,3.406
	c-0.138,0.326,0.016,0.438,0.344,0.438c0.328,0,1.178,0.026,1.73,0.026c0.549,0,0.593-0.206,0.749-0.464
	c0.155-0.259,0.482-1.36,0.757-2.305C110.422,51.833,110.126,51.366,109.834,51.677L109.834,51.677z M101.611,80.511
	c-0.103,0.484,0.285,0.836,1.195,0.869c0.482,0.034,0.534,0.629,0.534,0.629l-6.609,0.016c0,0-0.016-0.644,0.656-0.696
	c1.083-0.034,1.67-0.378,1.858-1.083c0.188-0.707,0.937-3.414,1.04-3.795c0.103-0.378-0.155-0.721-0.549-0.721s-2.719,0.016-3.097,0
	c-0.378-0.016-0.636,0.257-1.032,0.516c-0.394,0.233-3.699,4.02-6.597,6.5c-1.784,1.529-3.039,2.056-4.475,2.456
	c-1.36,0.36-3.952,0.615-3.992,0.066c-0.024-0.329,1.318,0.159,3.215-0.312c2.023-0.503,4.555-2.061,5.63-3.188
	c2.477-2.599,3.355-3.478,6.892-7.052c2.924-2.954,5.9-5.543,6.529-6.703c-0.464,0.136-6.969,0.593-6.969,0.593
	s-2.348,0.164-2.243,1.935c0.119,1.222,1.401,0.793,1.367,1.137c-0.328,0.619-1.93,0.13-2.066-1.239
	c-0.117-1.003,1.062-1.93,2.89-2.168c0.929-0.121,4.55-0.328,5.67-0.445c1.118-0.121,4.214-1.851,4.214-1.851
	C105.671,65.973,101.715,80.028,101.611,80.511L101.611,80.511z M101.311,70.697c-0.14,0.138-1.001,0.869-1.837,1.691
	c-0.922,0.91-1.824,1.918-1.932,2.025c-0.206,0.206-0.136,0.516,0.136,0.516c0.275,0,2.274,0,2.599,0
	c0.326,0,0.534-0.285,0.672-0.697c0.136-0.411,0.85-3.166,0.85-3.406C101.799,70.584,101.603,70.402,101.311,70.697L101.311,70.697z
	 M81.154,91.755c-0.689,0.036-1.188,0.662-1.411,1.024c-0.225,0.36-2.658,5.064-2.658,9.015c0,4.555,1.991,4.825,3.218,4.955
	c1.769,0.189,6.716-1.875,6.762-6.606c-0.034-1.807-0.757-2.056-1.583-2.073c-0.852-0.017-2.015,0.941-2.081,1.995
	c-0.036,0.535,0.989,0.816,0.989,0.801c0.016,0.273-1.471,1.048-1.575-0.696c-0.118-1.955,2.018-2.789,2.47-2.789
	c0.603,0,2.666,0.172,2.685,2.685c0.032,4.541-5.658,8.034-8.414,7.872c-2.042-0.122-5.371-1.17-5.394-5.471
	c-0.005-0.897,0.293-6.485,3.561-9.807c0.293-0.293,0.208-0.827,0-0.929c-0.206-0.103-1.05-0.344-1.342-0.362
	c-0.293-0.018-0.491,0.208-0.593,0.672c-1.766,4.822-6.224,8.706-10.995,8.706c-4.942,0-6.529-3.747-6.529-4.681
	c0-2.685,0.807-5.106,4.001-5.222c2.727-0.097,3.179,2.281,3.123,3.416c-0.036,0.136-0.201,0.077-0.252,0.026
	c-0.051-0.053-0.014-2.666-2.957-2.736c-3.561-0.085-3.036,4.862-3.036,4.463c0,1.511,2.258,3.975,5.625,3.975
	c6.233,0,9.687-5.723,10.349-8c0.276-0.946,0.034-1.257-0.31-1.445c-0.755-0.346-1.333-0.903-2.038-2.091
	c-0.596-1.006,0.167-2.204,1.471-2.168c0.98,0.034,1.972,1.514,2.039,3.82c0.016,0.549,0.336,0.636,0.508,0.688
	c0.172,0.051,0.636,0.17,0.963,0.241c0.636,0.138,1.059-0.079,1.713-0.577c2.642-2.151,4.154-3.486,5.941-4.352
	c4.11-1.999,6.712-1.241,6.747-0.233C92.148,90.961,81.476,91.739,81.154,91.755L81.154,91.755z M73.489,87.11
	c-0.808,1.548,1.445,2.726,1.599,2.813c0.155,0.085,0.481,0.008,0.498-0.283C75.562,86.713,73.808,86.52,73.489,87.11L73.489,87.11z
	 M85.989,86.874c-1.561,0.696-3.408,2.213-3.839,2.695s-0.68,1.162-0.198,1.18c3.544,0.235,9.401-2.18,9.049-4.328
	C90.886,85.715,88.176,85.899,85.989,86.874L85.989,86.874z M134.654,93.715c-0.447,0.223-0.026,0.593-0.026,0.593
	s1.807,0.863,1.807,2.891c0,2.856-3.769,4.232-5.419,4.232c-1.652,0-10.28,0.043-10.28,0.043s0.008-0.457,0.421-0.611
	c0.601-0.225,0.74-0.061,1.152-0.164c0.413-0.104,0.755-0.267,1.083-1.214c0.326-0.946,3.692-10.674,3.914-11.346
	c0.223-0.67,0.165-0.972-0.61-1.075c-0.448-0.051-0.481-0.447-0.481-0.447s6.357,0.026,7.356,0.026c3.522,0,4.076,2.915,4.076,3.459
	C137.647,91.734,136.517,92.98,134.654,93.715L134.654,93.715z M127.685,95.111c-0.191,0.464-1.531,3.939-1.756,4.489
	c-0.223,0.549,0.026,1.008,0.438,1.008c0.413,0,1.026,0,2.521,0c2.761,0,4.55-2.547,4.55-3.639c0-1.947-1.626-2.555-2.4-2.555
	c-0.774,0-1.875-0.051-2.427-0.051C128.065,94.362,127.877,94.644,127.685,95.111L127.685,95.111z M132.384,87.471
	c-0.689,0-1.532,0.017-1.824,0.017c-0.291,0-0.516,0.3-0.808,1.142c-0.293,0.842-1.195,3.51-1.316,3.975
	c-0.121,0.464-0.077,0.955,0.336,0.955c0.411,0,1.202,0.051,2.322,0.051c1.842,0,3.443-1.832,3.443-3.242
	C134.536,88.961,133.672,87.471,132.384,87.471L132.384,87.471z"/>
</svg>
