<?xml version="1.0" encoding="utf-8"?>
<!-- Generator: Adobe Illustrator 18.1.0, SVG Export Plug-In . SVG Version: 6.00 Build 0)  -->
<!DOCTYPE svg PUBLIC "-//W3C//DTD SVG 1.1//EN" "http://www.w3.org/Graphics/SVG/1.1/DTD/svg11.dtd">
<svg version="1.1" id="Layer_1" xmlns="http://www.w3.org/2000/svg" xmlns:xlink="http://www.w3.org/1999/xlink" x="0px" y="0px"
	 viewBox="0 0 200 125" enable-background="new 0 0 200 125" xml:space="preserve">
<path fill="#877137" d="M156.7,28.3c-4,1.8-8.4,2.9-12.8,3.5c4.6-2.6,8.2-7.1,9.7-12.3c-4.4,2.6-9,4.4-14.1,5.5
	c-4-4.4-9.9-7.1-16.3-7.1c-12.3,0-22.3,9.9-22.3,22.3c0,1.8,0.2,3.5,0.7,5.1C83,44.2,66.7,35.3,55.7,21.9c-2,3.3-3.1,7.1-3.1,11.2
	c0,7.7,4,14.5,9.9,18.5c-3.7-0.2-7.1-1.1-10.1-2.9V49c0,10.8,7.7,19.8,17.9,21.8c-1.8,0.4-3.7,0.9-6,0.9c-1.5,0-2.9-0.2-4.2-0.4
	c2.9,8.8,11,15.2,20.7,15.4c-7.3,6-17,9.7-27.3,9.7c-1.8,0-3.5,0-5.3-0.2c9.9,6.4,21.6,9.9,34.2,9.9c41,0,63.5-34,63.5-63.5
	c0-0.9,0-2,0-2.9C150,36.7,153.8,32.7,156.7,28.3z"/>
</svg>
