<?xml version="1.0" encoding="utf-8"?>
<!-- Generator: Adobe Illustrator 18.0.0, SVG Export Plug-In . SVG Version: 6.00 Build 0)  -->
<!DOCTYPE svg PUBLIC "-//W3C//DTD SVG 1.1//EN" "http://www.w3.org/Graphics/SVG/1.1/DTD/svg11.dtd">
<svg version="1.1" id="Layer_1" xmlns="http://www.w3.org/2000/svg" xmlns:xlink="http://www.w3.org/1999/xlink" x="0px" y="0px"
	 viewBox="2.5 0 124.5 125" enable-background="new 2.5 0 124.5 125" xml:space="preserve">
<path opacity="0.5" fill="#FFFFFF" d="M118.902,28.289c-3.968,1.764-8.377,2.866-12.787,3.527c4.63-2.646,8.157-7.055,9.7-12.346
	c-4.409,2.646-9.039,4.409-14.109,5.511c-3.968-4.409-9.921-7.055-16.314-7.055c-12.346,0-22.266,9.921-22.266,22.266
	c0,1.764,0.22,3.527,0.661,5.071c-18.519-1.102-34.832-9.921-45.855-23.369c-1.984,3.307-3.086,7.055-3.086,11.243
	c0,7.716,3.968,14.55,9.921,18.519c-3.748-0.22-7.055-1.102-10.141-2.866v0.22c0,10.802,7.716,19.841,17.857,21.825
	c-1.764,0.441-3.748,0.882-5.952,0.882c-1.543,0-2.866-0.22-4.189-0.441c2.866,8.818,11.023,15.212,20.723,15.432
	c-7.275,5.952-16.975,9.7-27.337,9.7c-1.764,0-3.527,0-5.291-0.22c9.921,6.393,21.605,9.921,34.171,9.921
	c41.005,0,63.492-33.951,63.492-63.492c0-0.882,0-1.984,0-2.866C112.288,36.667,116.036,32.698,118.902,28.289z"/>
</svg>
